<svg width="638" height="766" viewBox="0 0 638 766" fill="none" xmlns="http://www.w3.org/2000/svg">
<path d="M305.248 187.168L322.738 267.607L331.944 258.957C331.944 258.957 316.998 186.453 315.774 186.008C314.55 185.563 304.819 185.245 305.248 187.168Z" fill="black"/>
<path d="M582.735 272.79C569.92 259.402 552.875 254.871 536.259 248.145C532.587 246.65 528.802 244.87 526.465 241.658C524.439 238.454 523.425 234.714 523.555 230.925C523.415 224.095 524.715 217.312 527.371 211.019C528.49 207.942 529.851 204.959 531.442 202.099C532.205 200.886 533.044 199.723 533.954 198.617C534.41 198.055 534.887 197.525 535.385 197.027C535.924 196.546 536.414 196.014 536.848 195.437C535.052 195.464 533.296 195.969 531.76 196.899C530.2 197.682 528.742 198.654 527.419 199.793C523.4 203.367 519.727 207.312 516.448 211.575C512.374 216.523 508.855 221.903 505.954 227.618C503.091 232.967 501.461 238.889 501.184 244.949C501.115 250.87 503.304 256.595 507.306 260.96C513.348 267.575 522.951 269.101 531.442 271.995C535.464 273.378 539.519 275.175 542.222 278.53C545.593 282.664 546.292 288.452 545.402 293.683C543.91 300.817 540.828 307.524 536.387 313.303C529.343 322.637 519.485 329.474 509.261 335.15C478.367 352.306 443.085 360.288 412.112 377.285C401.729 382.993 391.013 390.959 389.009 402.629C384.748 427.529 407.199 441.6 430.731 449.582C442.343 453.357 454.244 456.176 466.315 458.009C467.508 458.2 468.7 458.359 469.893 458.518C471.017 447.901 473.779 437.522 478.081 427.751C477.211 426.74 476.692 425.473 476.603 424.142C476.603 421.853 478.193 419.897 479.783 418.211C482.199 415.652 484.712 413.235 487.287 410.913C487.749 410.214 488.194 409.514 488.671 408.846C488.194 409.514 487.749 410.214 487.287 410.913C513.475 387.445 547.978 375.52 575.183 353.26C583.816 346.184 591.814 337.837 595.932 327.47C603.183 309.122 596.441 287.1 582.735 272.79Z" fill="url(#paint0_linear)"/>
<path opacity="0.22" d="M264.639 429.93C264.639 429.23 264.639 428.53 264.639 427.847C264.819 424.285 264.166 420.73 262.731 417.464C252.19 397.446 218.514 417.464 206.764 425.319C194.536 433.507 182.993 442.92 169.589 448.994C148.315 458.629 124.576 454.877 105.751 441.568C93.953 433.221 85.9076 423.395 78.8162 410.961C74.6186 403.599 68.9582 396.079 60.6743 394.171C62.5505 394.6 65.0786 432.108 65.6033 435.511C67.8452 450.393 71.1365 465.625 79.2137 478.536C94.1915 502.386 127.852 512.467 153.467 500.653C166.33 494.722 176.601 484.355 188.844 477.248C201.087 470.141 217.56 466.77 228.833 475.324C236.337 480.969 239.835 490.636 240.599 500.001C241.362 509.366 239.772 518.747 239.136 528.112C238.595 536.062 238.945 544.807 243.906 551.104C248.867 557.4 259.965 559.054 264.576 552.566C265.164 551.708 256.848 525.107 256.626 521.021C256.388 511.542 257.404 502.074 259.647 492.862C264.353 472.367 265.037 450.87 264.639 429.93Z" fill="url(#paint1_linear)"/>
<path d="M135.404 679.337C134.451 674.567 134.196 670.099 136.025 666.617L116.166 660.257C110.712 667.937 102.651 672.977 93.7783 676.539C107.166 679.989 121.238 679.48 135.404 679.337Z" fill="#FFB396"/>
<path d="M344.967 217.919C345.239 217.545 345.623 217.267 346.062 217.125C346.502 216.982 346.976 216.982 347.416 217.124C354.348 219.255 368.086 226.664 378.23 233.962C389.805 242.326 395.147 233.04 404.91 252.088C414.673 271.136 414.211 304.065 414.211 304.065L392.349 330.189C392.349 330.189 392.826 275.334 390.966 270.453C389.105 265.571 372.84 271.152 367.72 258.607C362.6 246.062 369.58 244.647 366.13 236.443C365.096 233.93 344.267 223.023 344.267 221.163C344.18 220.036 344.423 218.909 344.967 217.919Z" fill="#DB9980"/>
<path d="M465.091 207.234C467.397 205.898 469.944 205.03 472.586 204.68C475.229 204.33 477.914 204.505 480.489 205.195C483.063 205.885 485.476 207.076 487.59 208.7C489.703 210.324 491.475 212.349 492.804 214.66C500.791 228.536 506.73 243.493 510.437 259.068C518.801 295.32 514.031 412.662 475.108 477.55C469.527 486.852 452.848 477.55 452.848 477.55C452.848 477.55 415.658 440.36 344.076 410.611C344.076 410.611 334.774 401.31 337.573 393.869C340.371 386.427 432.337 282.33 436.98 251.627C441.622 220.924 457.443 211.655 457.443 211.655L465.091 207.234Z" fill="url(#paint2_linear)"/>
<path d="M461.037 361.433C446.329 342.957 404.592 325.864 400.251 328.329C399.329 352.417 461.18 382.5 468.971 375.345C469.225 373.612 467.651 369.78 461.037 361.433Z" fill="url(#paint3_linear)"/>
<path d="M446.52 185.658C441.893 163.589 432.973 149.978 424.753 141.726C423.803 140.875 422.578 140.395 421.303 140.375C420.359 140.513 419.475 140.921 418.759 141.551C414.816 144.731 413.591 149.724 412.399 154.812C412.21 155.742 411.82 156.619 411.257 157.382C410.694 158.146 409.971 158.777 409.139 159.232C409.139 170.362 408.424 181.19 409.95 192.352C410.443 196.025 412.001 200.572 415.706 200.795C417.121 200.874 418.647 200.27 419.872 200.986C420.669 201.572 421.233 202.423 421.462 203.387C422.464 207.023 423.696 210.591 425.151 214.071C425.886 215.809 426.996 217.364 428.4 218.626C429.804 219.887 431.469 220.824 433.275 221.369C439.381 222.753 444.755 217.697 448.619 212.609C448.921 201.844 446.52 185.658 446.52 185.658Z" fill="#FFB79C"/>
<path d="M423.862 326.85C423.862 326.85 410.093 350.493 408.248 350.7C406.404 350.907 351.708 292.649 344.759 287.688C337.811 282.728 339.989 277.846 337.604 271.057C335.219 264.268 340.451 250.26 332.596 240.704C324.741 231.148 331.006 249.703 330.306 251.643C329.607 253.583 328.828 261.183 325.536 261.406C322.245 261.628 319.447 255.888 318.731 253.154C318.016 250.419 318.524 240.561 311.465 229.526C304.405 218.492 308.428 242.405 306.695 244.424C304.376 248.169 303.148 252.486 303.149 256.89C303.483 260.595 300.78 266.891 301.035 269.61C301.289 272.329 315.201 287.005 323.819 294.637C332.437 302.269 344.489 321.253 355.81 338.886C367.131 356.519 395.814 409.975 405.784 411.867C415.753 413.759 452.323 379.209 462.69 359.604C473.057 339.999 423.862 326.85 423.862 326.85Z" fill="#FFB396"/>
<path d="M65.015 271.788L64.6652 273.188C65.8415 268.53 67.3724 263.969 69.2444 259.545C68.052 261.994 66.9905 264.505 66.0644 267.066L64.6811 271.009C64.2677 272.345 63.9656 273.696 63.6317 275.032C63.2978 276.368 62.9798 277.671 62.7731 278.975C62.5664 280.279 62.4392 281.551 62.3279 282.791C62.0645 285.073 62.0645 287.378 62.3279 289.66C61.2308 290.439 60.6425 300.79 61.0241 300.965L61.835 307.404C61.6124 305.926 61.5011 304.431 61.3262 302.952C61.5011 304.431 61.6124 305.926 61.835 307.404C64.0605 321.902 68.3101 336.016 74.4596 349.333C77.3189 355.383 80.5035 361.275 83.9996 366.982C88.0541 373.691 91.9496 380.353 93.8099 384.138C94.3823 385.219 94.8752 386.316 95.3999 387.413C94.5413 385.569 94.5731 385.553 93.6509 383.74C96.1344 387.755 98.2624 391.979 100.011 396.365C99.9171 395.429 99.7198 394.506 99.4226 393.614C99.677 394.33 99.9632 395.045 100.154 395.776C101.424 398.526 102.353 401.42 102.921 404.394C102.65 403.949 102.921 405.666 103.016 407.209V406.588L103.207 408.814V411.12C103.191 412.657 103.08 414.192 102.873 415.715C102.555 417.194 102.316 418.688 101.887 420.088C101.492 421.412 101.009 422.708 100.44 423.967C100.214 424.455 99.9484 424.923 99.6452 425.366C98.9297 426.877 98.1347 428.371 97.2761 429.834C97.2761 429.389 94.748 433.237 95.9882 431.122C94.0961 434.461 91.4885 437.482 89.4215 440.551C87.3704 443.19 85.2557 445.893 83.3 448.787C81.3378 451.726 79.6202 454.821 78.1643 458.041C75.2938 464.532 73.5413 471.461 72.9809 478.536L73.1081 478.218C72.8729 483.246 73.0217 488.285 73.5533 493.291C74.2847 497.457 75.9383 503.213 76.9241 504.628C78.1393 508.224 79.7385 511.678 81.6941 514.931C81.3284 513.754 84.1109 518.779 83.1728 516.664C82.8112 515.694 82.3863 514.748 81.9008 513.834C81.4316 513.036 81.0682 512.181 80.8196 511.29V511.401C76.2392 500.127 74.8849 487.801 76.9082 475.801C77.5353 471.656 78.6013 467.589 80.0882 463.669C81.6429 459.704 83.5757 455.896 85.8599 452.301C90.7889 444.669 97.8644 436.989 101.76 429.5C102.682 427.72 103.509 426.511 104.32 424.953C105.968 420.9 106.93 416.602 107.166 412.233C107.341 407.668 106.755 403.106 105.433 398.734L105.528 399.147C104.509 395.087 103.109 391.131 101.347 387.334C101.347 387.334 100.997 386.761 100.822 386.475C100.263 385.103 99.6043 383.775 98.8502 382.5C97.6418 380.306 95.9564 377.491 94.1915 374.741C90.6617 369.208 86.9888 363.738 86.6867 363.022L85.9394 361.862C81.6972 354.171 77.9788 346.203 74.8094 338.012L72.5834 333.496C72.2495 332.161 71.8838 332.002 71.4068 330.412C70.7072 326.214 69.8168 323.924 70.1984 326.071C69.1951 322.892 68.3722 319.659 67.7339 316.388C67.4318 314.989 67.082 313.621 66.8276 312.206C66.6221 311.385 66.5682 310.534 66.6686 309.694C66.3773 307.891 66.2495 306.066 66.287 304.24C66.2637 302.744 66.1415 301.252 65.9213 299.772C65.7941 297.705 65.7146 295.622 65.7464 295.161V295.702C65.7464 294.748 65.7464 293.889 65.8736 293.063C66.0008 292.236 66.1121 291.473 66.2393 290.709C66.4937 289.119 66.7163 287.641 66.923 285.812C68.3062 275.651 71.1666 265.747 75.4136 256.413C75.2228 256.222 74.5868 258.337 74.2529 258.305L76.0496 254.505C76.6379 253.233 77.4329 252.056 78.1007 250.832C78.7685 249.608 79.4681 248.368 80.2472 247.191L82.5527 243.661C83.0662 242.911 83.6406 242.203 84.2699 241.547C84.7447 240.913 85.1853 240.255 85.5896 239.575H85.8758C86.751 238.313 87.7182 237.117 88.7696 235.997C88.978 235.58 89.2517 235.199 89.5805 234.869C89.7872 234.996 90.8366 233.279 90.932 233.549C91.1864 233.247 91.3454 233.04 91.6793 232.69C92.0132 232.34 93.0149 230.862 94.2074 229.367C95.3999 227.873 96.5606 226.314 96.8309 226.076L97.1171 225.869C97.8803 225.17 98.087 224.74 97.61 225.122L98.564 224.263L98.4686 224.375L99.4226 223.532C99.6134 223.389 99.8678 223.293 99.677 223.627C100.158 223.051 100.69 222.518 101.267 222.037C99.677 223.262 97.7213 224.772 95.9882 226.012C96.5765 225.376 97.8167 224.422 98.5004 223.77C99.4385 223.166 101.172 221.656 102.682 220.686C102.968 220.447 103.016 220.066 103.795 219.605C104.256 219.493 104.574 218.984 105.242 218.635C104.62 219.207 103.962 219.738 103.27 220.225C103.525 220.304 105.003 219.048 105.576 218.635C106.335 217.978 107.137 217.372 107.977 216.822C107.722 217.235 108.756 216.456 109.328 216.218C109.901 215.979 110.25 215.534 109.964 215.63C109.964 215.312 107.579 217.061 108.247 216.329C108.951 215.957 109.626 215.532 110.266 215.057C110.266 214.946 109.789 215.264 110.123 214.898C110.697 214.451 111.303 214.047 111.936 213.69C111.744 213.841 111.542 213.979 111.332 214.103C112.206 213.531 106.943 217.999 108.056 217.172C107.691 217.283 112.715 213.181 112.127 213.563C111.538 213.944 112.397 213.117 111.809 213.451L111.268 214.008C110.473 214.485 110.044 214.517 110.266 214.262C111.554 213.419 107.086 217.442 108.104 216.568L107.627 216.822C108.29 216.238 109.022 215.736 109.805 215.327C109.805 215.232 110.346 214.771 110.839 214.389L111.045 214.278C111.538 213.865 112.317 213.388 111.872 213.483C108.692 215.63 113.335 211.034 110.187 213.038C111.65 212.402 109.901 213.578 108.597 214.517C107.926 214.726 107.289 215.031 106.705 215.423C105.862 216.011 106.26 215.836 106.132 216.011C105.624 216.25 104.765 216.917 104.781 216.711C104.24 217.331 103.7 217.41 102.984 218.046C102.269 218.682 102.984 218.046 102.65 218.507C101.649 219.287 100.186 220.304 99.4703 221.004C99.0887 221.163 98.0393 221.799 98.564 221.004C100.011 219.732 98.2301 221.751 99.6929 220.368C99.2795 220.559 99.5816 220.225 100.043 219.827C100.464 219.529 100.843 219.176 101.172 218.778C100.285 219.284 99.4764 219.916 98.7707 220.654L98.9615 220.543C98.0437 221.475 97.0607 222.341 96.02 223.134C96.1154 222.88 95.7338 223.134 96.2426 222.641L95.2409 223.516C95.1455 223.659 95.0342 223.802 95.3363 223.516C94.9458 223.943 94.5203 224.336 94.0643 224.693C93.8894 224.693 89.501 230.099 89.66 229.924C89.1474 230.411 88.6791 230.943 88.2608 231.514C88.2608 231.514 89.5805 229.701 91.0274 228.143C92.4743 226.585 93.7304 224.963 93.317 225.488C92.9036 226.012 91.1864 227.761 89.4851 229.828C88.4005 231.355 87.2383 232.825 86.003 234.233C85.5419 234.757 85.0649 235.473 85.2557 235.409C84.5084 236.347 85.2557 234.996 84.7151 235.616C84.7151 235.616 84.7151 235.616 84.7151 235.807L84.1109 236.379C83.5477 237.295 82.9374 238.181 82.2824 239.034L81.2807 240.434C81.0076 240.881 80.7582 241.343 80.5334 241.817C80.7526 241.014 81.0788 240.243 81.5033 239.527L81.6941 239.384C81.6941 239.209 82.3301 238.351 82.2188 238.319C81.4624 239.193 80.8211 240.16 80.3108 241.197L79.8656 241.721C79.5953 242.024 79.5953 241.992 79.643 241.833V241.753C78.9931 242.479 78.457 243.299 78.053 244.186L77.0195 245.999C76.7458 246.544 76.4433 247.075 76.1132 247.589C75.8429 248.177 76.1132 247.668 75.8111 248.399C74.6959 250.101 73.6767 251.863 72.7583 253.678C72.5834 254.41 72.5993 254.489 73.1081 253.678L72.3449 255.268C72.6629 253.678 70.6436 258.114 71.0252 256.349C70.5802 257.084 70.2227 257.869 69.9599 258.687C69.9599 258.814 70.103 259.021 69.6578 260.181L68.4971 262.694C68.2586 262.964 68.4017 262.455 68.2904 262.487C67.6703 264.617 67.3046 264.188 66.7004 266.223C66.2649 267.481 65.9663 268.781 65.81 270.103C65.2694 272.043 65.1581 272.011 65.015 271.788Z" fill="#691C7A"/>
<path d="M539.821 364.613C539.678 364.088 539.487 363.547 539.36 363.023C540.203 365.598 541.061 368.238 541.888 370.973L542.492 372.992L543.256 374.963L544.75 378.923C543.955 375.933 542.938 372.912 542.302 369.748C541.936 368.158 541.554 366.568 541.141 365.074C540.95 364.295 540.712 363.484 540.521 362.768L540.028 360.463C539.678 358.873 539.296 357.442 538.883 355.995C538.47 354.548 537.961 353.149 537.627 351.765C536.94 349.16 535.97 346.638 534.733 344.245C535.385 343.625 535.814 340.349 535.862 337.249C535.862 335.659 535.862 334.18 535.862 333.035C535.948 332.377 535.91 331.708 535.751 331.064C535.433 328.647 535.147 326.182 534.908 323.67L535.385 328.79L534.908 323.67C534.765 321.698 534.908 319.695 534.908 317.66L534.988 314.607C534.985 313.581 535.054 312.555 535.194 311.538C535.48 309.487 535.767 307.436 536.037 305.353C536.212 304.32 536.307 303.254 536.546 302.173C536.784 301.092 537.07 300.106 537.325 299.089L538.915 292.856C539.572 290.736 540.288 288.669 541.061 286.655C542.651 282.521 544.369 278.387 546.245 274.221C548.264 269.578 552.255 260.976 555.96 251.961C557.82 247.445 559.553 242.819 560.92 238.605C562.288 234.392 563.258 230.544 563.925 227.841C564.275 226.251 564.641 224.661 564.895 223.071C564.371 225.758 564.291 225.726 563.687 228.365C564.5 222.082 564.724 215.737 564.355 209.413C563.969 210.627 563.687 211.871 563.512 213.133L563.703 210.112C563.56 209.413 563.385 208.522 563.242 207.489C563.099 206.455 562.987 205.31 562.797 204.182C562.546 202.146 562.169 200.128 561.668 198.14C562.177 198.696 561.747 196.359 561.35 194.308V195.166C560.444 191.084 559.017 187.135 557.104 183.416C555.271 179.974 553.144 176.697 550.744 173.622C550.317 173.063 549.959 172.454 549.679 171.809C548.296 170.219 546.913 168.629 545.593 167.039C546.213 167.039 543.001 162.667 544.925 164.861C541.745 161.506 540.155 157.388 538.12 153.54C535.584 146.002 534.547 138.04 535.067 130.103C535.477 121.81 537.15 113.628 540.028 105.84L539.71 106.158C541.65 100.688 543.192 95.6163 547.215 89.6856C549.313 84.9156 553.32 78.8418 553.734 76.5999C557.2 71.8299 558.281 69.588 561.763 64.8816C560.412 65.7243 564.943 60.1116 562.765 62.0832C559.744 64.6272 560.078 65.2632 557.565 67.3938H557.756C552.547 73.2023 547.719 79.3419 543.303 85.7742C538.748 92.3929 534.95 99.5023 531.982 106.969C530.16 112.325 528.767 117.817 527.817 123.394C526.873 129.152 526.638 135.004 527.117 140.82C527.7 147.17 529.311 153.383 531.887 159.216C532.571 160.647 533.254 162.062 534.018 163.398C534.781 164.734 535.608 166.053 536.434 167.278C538.136 169.694 539.869 171.825 541.491 173.749C542.767 175.313 543.866 177.014 544.766 178.821C547.711 182.392 550.072 186.406 551.762 190.714C553.498 195.319 554.631 200.129 555.133 205.024V204.547C555.415 209.223 555.234 213.915 554.592 218.555C554.735 218.555 554.672 219.318 554.704 219.716C554.29 220.097 553.765 227.57 551.873 235.075C550.651 240.495 549.008 245.811 546.96 250.975L546.404 252.565C541.952 262.789 535.957 272.965 532.809 282.41C532.396 284.54 531.887 286.925 531.712 288.77C530.917 290.36 531.378 290.852 530.806 292.888C528.198 297.785 527.992 301.028 529.12 298.405C528.93 299.502 528.612 300.567 528.469 301.585L527.992 304.765C527.658 306.896 527.34 308.978 527.038 310.918C526.735 312.858 526.942 314.559 526.91 316.388C526.966 317.484 526.747 318.577 526.274 319.568C526.163 323.559 525.972 322.366 525.845 326.564C525.705 328.496 525.785 330.437 526.084 332.351C526.417 334.991 527.022 337.614 526.974 338.203L526.847 337.535C526.965 339.685 526.965 341.84 526.847 343.99C526.896 346.12 527.082 348.244 527.403 350.35C527.642 351.94 527.864 353.657 528.166 355.311C528.469 356.965 528.946 358.586 529.343 360.24C529.741 361.894 530.17 363.563 530.567 365.217C530.965 366.87 531.633 368.397 532.157 370.066C532.682 371.736 533.239 373.246 533.747 374.836C534.256 376.426 534.988 377.937 535.592 379.463C536.196 380.99 536.848 382.468 537.452 383.947L538.358 386.125C538.708 386.825 539.042 387.524 539.376 388.208C539.901 388.097 538.04 385.855 538.613 385.442C540.16 388.685 541.671 391.971 543.144 395.3C544.734 398.48 546.61 401.66 548.455 404.84C549.059 406.032 549.838 407.447 550.045 408.02C551.253 410.039 551.046 409.021 551.985 410.436L551.762 410.897C552.472 411.647 553.057 412.506 553.495 413.441C553.86 414.363 554.4 415.205 555.085 415.922C555.308 415.922 555.896 416.558 556.421 417.21C556.087 417.544 558.122 419.165 557.709 419.356C558.049 419.721 558.358 420.115 558.631 420.533L560.221 421.853L561.477 422.95L562.971 424.079C565.007 425.589 567.026 427.084 567.439 427.354L567.71 427.736C568.664 428.674 569.3 428.833 568.823 428.213L569.967 429.405L569.808 429.294C570.183 429.689 570.581 430.061 571.001 430.407C571.208 430.645 571.319 431.027 570.826 430.868C571.673 431.36 572.458 431.953 573.163 432.633C572.273 431.679 571.271 430.629 570.301 429.453C569.331 428.276 568.521 427.068 567.741 425.939C568.632 426.607 569.872 428.197 570.747 429.008C572.179 430.73 573.702 432.376 575.31 433.937C575.723 434.239 576.312 434.064 577.043 434.986C577.25 435.622 578.045 435.813 578.633 436.576C577.71 435.984 576.852 435.297 576.073 434.525C575.962 434.986 577.949 436.528 578.569 437.164C578.999 437.291 580.668 438.659 581.845 439.343C581.113 439.343 582.576 440.185 583.117 440.837C583.657 441.489 584.405 441.6 584.182 441.266C584.675 441.076 581.368 438.945 582.687 439.295C583.408 440.033 584.227 440.67 585.12 441.187C585.263 440.98 584.691 440.646 585.327 440.805C586.17 441.473 587.251 441.871 587.616 442.395C587.33 442.249 587.063 442.067 586.821 441.855C587.966 442.697 579.762 438.818 581.304 439.74C581.066 439.311 588.618 443.127 587.855 442.57C587.092 442.014 588.586 442.57 587.855 441.982L586.901 441.664C585.979 440.901 585.82 440.265 586.265 440.36C587.855 441.553 580.684 438.468 582.21 439.247L581.702 438.738C582.752 439.211 583.707 439.874 584.516 440.694C584.659 440.487 585.518 440.98 586.217 441.378L586.44 441.584C587.187 441.966 588.109 442.682 587.839 442.109C583.848 439.327 591.766 441.871 588.03 439.056C589.334 440.646 587.203 439.136 585.486 437.991C585.032 437.225 584.433 436.555 583.721 436.019C582.656 435.32 582.99 435.749 582.719 435.717C582.21 435.209 581.129 434.35 581.479 434.239C580.446 433.952 580.382 433.078 579.396 432.426C578.41 431.774 579.396 432.585 578.681 432.219C577.504 431.186 575.866 429.723 574.944 428.864C574.753 428.356 573.958 427.052 575.04 427.433C576.804 429.023 573.911 427.433 575.85 428.88C575.437 427.736 577.615 430.168 578.251 430.105C577.492 429.128 576.586 428.275 575.564 427.577L575.707 427.799C575.246 427.449 574.547 426.925 573.863 426.352C573.244 425.82 572.708 425.199 572.273 424.508C572.623 424.508 572.352 424.063 572.988 424.635L571.891 423.474C571.701 423.379 571.51 423.268 571.796 423.633C571.216 423.234 570.723 422.72 570.349 422.123C569.326 421.106 568.226 420.17 567.058 419.324C566 418.506 565.006 417.607 564.084 416.637C563.337 415.763 563.417 415.318 562.494 414.602C563.646 415.947 564.867 417.231 566.151 418.45C567.186 419.421 568.274 420.334 569.411 421.185C569.188 420.724 566.533 418.736 564.323 416.415C562.639 414.875 561.096 413.188 559.712 411.374C559.108 410.754 558.504 409.912 558.44 410.214C557.677 408.974 559.028 410.309 558.599 409.339C558.599 409.339 558.599 409.482 558.376 409.212L558.027 408.226C556.437 406.636 554.847 403.679 553.129 402.009C554.026 402.542 554.854 403.183 555.594 403.917V404.204C555.769 404.347 556.564 405.301 556.723 405.142C556.035 403.933 555.19 402.822 554.211 401.834C554.088 401.578 553.987 401.313 553.909 401.039C553.909 401.039 553.909 401.039 553.909 401.039C553.781 400.547 553.829 400.578 553.909 400.69C553.923 400.683 553.94 400.679 553.956 400.679C553.973 400.679 553.989 400.683 554.004 400.69C554.099 399.561 550.824 396.11 549.679 393.71C549.202 393.089 549.552 393.71 548.932 392.946C547.882 390.482 547.342 388.717 546.149 386.173C545.497 385.505 545.354 385.489 545.577 386.586L544.702 384.662C545.482 385.362 545.211 384.408 544.941 383.47C544.671 382.532 544.512 381.594 545.243 382.421C545.032 381.427 544.667 380.472 544.162 379.59C543.939 379.59 543.589 379.59 543.017 378.143C542.476 376.156 542.572 376.633 542.143 374.963C542.222 374.502 542.556 374.963 542.715 374.963C541.395 372.69 542.333 372.69 541.538 370.384C540.982 368.953 539.948 366.091 539.567 366.139C539.106 364.613 539.424 364.533 539.821 364.613Z" fill="#581766"/>
<path d="M161.163 489.205L161.767 488.06C159.949 491.957 157.922 495.752 155.693 499.429C158.734 495.531 161.397 491.351 163.643 486.947C165.783 482.98 166.909 478.544 166.918 474.036C168.89 474.036 172.531 465.355 172.197 465.037C172.42 463.081 172.706 461.141 173.024 459.186C172.786 460.521 172.547 461.857 172.34 463.193C172.547 461.857 172.786 460.521 173.024 459.186C173.263 457.85 173.485 456.006 173.74 454.416L174.503 449.646C174.884 446.466 175.489 443.286 175.854 439.819C176.745 432.799 176.745 425.693 175.854 418.673C175.447 415.876 174.798 413.12 173.914 410.436C172.682 406.784 170.965 403.313 168.811 400.117C166.569 396.817 163.803 393.906 160.622 391.499C158.309 389.765 155.893 388.172 153.388 386.729C152.37 386.141 151.352 385.585 150.351 385.044L153.69 387.047C149.047 385.171 145.12 383.947 141.749 382.277C142.2 382.994 142.77 383.629 143.434 384.154C142.878 383.788 142.321 383.438 141.844 383.057C140.591 382.771 139.397 382.271 138.314 381.578C137.09 380.815 135.929 379.988 135.134 379.415C135.675 379.415 134.657 378.398 133.862 377.412L134.021 377.937C130.671 374.24 128.299 369.763 127.121 364.915C127.03 364.469 127.03 364.009 127.121 363.563C126.806 362.214 126.593 360.842 126.485 359.461C126.914 359.763 127.009 356.042 127.248 358.014C126.787 354.834 127.804 351.749 128.17 348.601C130.105 342.997 132.345 337.504 134.88 332.145C137.642 326.308 139.518 320.091 140.445 313.701L140.222 313.987C140.432 311.774 140.395 309.545 140.111 307.341C139.826 304.92 139.39 302.52 138.807 300.154C137.896 298.261 136.771 296.479 135.452 294.843C134.559 293.619 133.334 292.676 131.923 292.124C130.778 290.996 129.422 290.104 127.932 289.501C126.538 288.936 125.071 288.572 123.575 288.42C123.988 288.769 123.114 288.722 122.367 288.833H121.858L121.429 288.928C121.254 288.928 121.317 289.087 121.842 289.199C122.245 289.388 122.666 289.537 123.098 289.644C123.367 289.744 123.644 289.824 123.925 289.882C124.559 290.011 125.146 290.308 125.626 290.741V290.55C129.483 292.894 132.277 296.646 133.417 301.012C133.723 302.096 133.947 303.202 134.085 304.32C134.166 305.463 134.166 306.611 134.085 307.754C133.949 310.192 133.544 312.608 132.877 314.957C132.143 318.496 130.984 321.934 129.426 325.196C127.836 328.678 126.024 332.208 124.386 335.929C122.51 340.091 121.024 344.418 119.95 348.856C118.896 353.226 118.648 357.752 119.218 362.212C119.536 364.136 119.377 365.582 119.521 367.284C120.585 371.333 122.298 375.182 124.593 378.684C127.028 382.394 130.193 385.569 133.894 388.017L133.56 387.763C136.694 390.05 140.012 392.071 143.482 393.805C143.482 393.662 144.07 393.916 144.372 393.98C145.432 394.707 146.581 395.294 147.791 395.729C150.082 396.705 152.317 397.809 154.485 399.036C156.552 400.29 158.462 401.784 160.177 403.488C161.114 404.378 161.908 405.408 162.53 406.541L163.198 407.463C164.924 410.838 166.034 414.494 166.473 418.259C166.982 421.964 167.062 425.573 167.252 428.864C167.65 430.28 167.872 431.917 168.238 433.157C167.904 434.334 168.445 434.588 168.238 436.019C166.648 439.565 166.855 441.696 167.57 439.899C167.486 441.404 167.306 442.901 167.03 444.383L166.33 448.612L165.821 452.381C165.798 453.164 165.487 453.911 164.947 454.479C164.502 457.214 164.311 456.324 163.436 459.09C162.943 460.338 162.627 461.65 162.498 462.986C162.284 464.344 161.987 465.687 161.608 467.009L161.703 466.532C160.622 469.712 158.841 471.461 157.665 474.482C154.052 482.967 149.975 491.248 145.453 499.286C145.835 499.588 146.264 497.584 146.884 497.807C145.644 500.001 144.213 502.1 142.782 504.167C141.351 506.234 139.873 508.349 138.505 510.527C137.974 511.179 137.389 511.785 136.756 512.339C135.723 513.611 136.438 513.278 135.739 514.247L135.277 514.152C134.641 515.742 133.481 516.028 132.765 517.507C132.861 517.666 132.559 518.191 132.225 518.668C131.811 518.429 131.255 520.258 130.953 519.876C130.774 520.176 130.566 520.459 130.333 520.719L127.471 527.985L127.232 528.208C126.707 528.987 126.771 529.527 127.232 529.114L126.564 530.068V529.925L125.881 530.879C125.737 531.022 125.419 531.101 125.435 530.72C125.199 531.37 124.849 531.973 124.402 532.501C125.69 531.165 127.296 529.511 128.758 528.208C128.228 529.071 127.649 529.905 127.025 530.704C125.847 531.789 124.733 532.941 123.686 534.154C123.511 534.472 123.798 534.965 123.146 535.506C122.621 535.617 122.637 536.269 122.049 536.666C122.367 535.959 122.784 535.3 123.289 534.711C122.86 534.584 121.969 536.126 121.508 536.555C121.508 536.873 120.475 538.034 120.029 538.892C119.934 538.32 119.377 539.369 118.869 539.703C118.36 540.037 118.36 540.641 118.63 540.514C118.885 540.928 120.316 538.559 120.22 539.56C119.902 539.56 119.25 540.705 118.885 541.277C119.075 541.421 119.298 541.007 119.234 541.5C118.757 542.088 118.551 542.915 118.09 543.09C118.181 542.886 118.304 542.698 118.455 542.534C117.883 543.313 120.188 537.255 119.568 538.368C119.95 538.225 117.581 543.79 117.978 543.265C118.376 542.74 118.09 543.869 118.519 543.408L118.678 542.677C119.234 542.025 119.775 541.993 119.743 542.327C118.9 543.472 120.681 538.066 120.188 539.147L120.57 538.813C120.293 539.583 119.828 540.271 119.218 540.816C119.409 540.959 119.091 541.564 118.837 542.088L118.678 542.231C118.439 542.788 117.915 543.44 118.408 543.313C120.363 540.435 119.123 546.588 121.158 543.901C119.918 544.76 120.983 543.201 121.778 541.945C122.408 541.702 122.959 541.289 123.368 540.753C123.861 539.974 123.511 540.196 123.496 539.974C123.893 539.624 124.529 538.877 124.688 539.131C124.831 538.352 125.531 538.32 125.912 537.541C126.294 536.762 125.769 537.541 125.912 536.953C126.596 536.046 127.502 534.743 128.107 534.043C128.52 533.9 129.522 533.28 129.41 534.154C128.393 535.553 129.235 533.232 128.281 534.758C129.235 534.472 127.518 536.174 127.709 536.698C128.419 536.121 128.999 535.4 129.41 534.584L129.235 534.695C129.768 533.643 130.472 532.686 131.318 531.865C131.318 532.167 131.716 531.865 131.414 532.469L132.113 531.515C132.113 531.356 132.113 531.181 131.938 531.435C132.113 530.942 132.428 530.511 132.845 530.195C133.115 530.195 135.58 524.439 135.58 524.678C136.041 523.962 136.438 523.962 136.693 523.088C136.597 522.913 132.845 530.306 133.385 529.321C134.021 528.86 137.806 520.655 138.426 520.433C138.76 519.892 139.125 519.224 138.855 519.224C139.523 518.397 139.046 519.733 139.634 519.224C139.634 519.224 139.507 519.224 139.634 519.017L140.27 518.556C140.874 516.966 142.576 515.17 143.068 513.437C143.154 514.318 143.073 515.208 142.83 516.06L142.623 516.155C142.623 516.33 142.162 517.141 142.369 517.237C143.071 516.455 143.612 515.542 143.959 514.55L144.436 514.136C144.754 513.898 144.754 513.945 144.754 514.136C144.763 514.167 144.763 514.2 144.754 514.232C145.66 513.993 146.614 510.463 147.934 508.953C148.141 508.412 147.934 508.841 148.125 508.158C149.349 506.568 150.223 505.502 151.4 503.769C151.4 503.054 151.4 502.943 150.748 503.499L151.591 502.179C151.591 503.769 153.642 499.953 153.547 501.702C154.078 501.142 154.484 500.476 154.739 499.747C154.612 499.572 154.405 499.301 154.946 498.332C155.9 497.091 155.629 497.362 156.44 496.328C156.806 496.185 156.679 496.646 156.886 496.694C157.506 494.77 158.158 495.39 158.968 493.705C159.461 492.639 160.447 490.525 160.066 490.27C160.622 488.776 160.908 488.919 161.163 489.205Z" fill="#691C7A"/>
<path d="M227.227 436.274C227.799 435.558 227.227 435.558 227.227 436.274V436.274Z" stroke="black" stroke-width="1.17" stroke-miterlimit="10"/>
<path d="M344.298 420.024C344.298 420.024 227.322 367.84 207.813 373.914C188.303 379.988 135.293 447.833 93.4441 540.339C93.4441 540.339 90.9637 549.021 101.823 554.745C111.968 560.119 121.73 567.926 130.173 563.299C130.767 562.971 131.336 562.599 131.874 562.186C139.459 556.335 202.836 469.473 221.837 443.572C225.017 439.295 226.909 436.671 227.179 436.369C227.179 435.654 227.751 435.654 227.179 436.369C227.179 437.307 228.371 439.438 234.747 442.729C273.512 440.122 323.962 437.037 333.741 438.563L347.129 421.789L344.298 420.024Z" fill="url(#paint4_linear)"/>
<path d="M348.544 420.024L347.177 421.725L333.789 438.5C324.01 436.91 273.56 440.09 234.795 442.666L221.837 443.54C202.836 469.441 139.459 556.303 131.875 562.154C131.336 562.567 130.767 562.939 130.173 563.267C123.813 588.198 112.286 632.241 112.97 638.617C113.908 647.219 129.251 651.337 144.356 652.8C159.461 654.263 214.777 528.685 218.259 522.42C221.741 516.155 224.301 505.916 227.481 507.315C250.95 517.65 349.53 535.808 383.063 535.506C416.596 535.204 445.343 481.684 445.343 481.684C441.161 465.593 348.544 420.024 348.544 420.024Z" fill="url(#paint5_linear)"/>
<path d="M376.385 440.233C376.624 440.328 376.894 447.96 377.005 448.596C377.657 452.396 378.738 456.721 381.251 459.726C386.72 466.325 399.218 468.106 406.341 463.606C417.232 456.769 376.401 440.233 376.385 440.233Z" fill="#9E0034"/>
<path d="M86.4325 562.695C85.9778 563.509 85.7675 564.437 85.8267 565.367C85.8859 566.298 86.2122 567.192 86.7664 567.942C87.8895 569.422 89.2945 570.665 90.9004 571.599L98.6437 576.83C101.585 578.817 105.242 580.884 108.486 579.437C110.075 578.57 111.412 577.304 112.365 575.765L123.75 560.58C122.835 559.199 121.664 558.006 120.3 557.066C116.42 554.045 106.482 544.553 101.315 544.887C95.5432 545.284 89.5807 558.211 86.4325 562.695Z" fill="#E30044"/>
<path d="M90.201 608.646C75.3186 608.646 62.2965 619.776 49.2903 630.906C36.8724 639.19 20.3682 638.251 6.59875 643.292C3.13255 645.82 0.509049 648.936 0.238749 653.15C0.0698891 655.628 0.622122 658.102 1.82875 660.273C7.17115 670.306 20.8134 672.42 32.0388 670.56C40.4789 669.384 48.4708 666.042 55.2369 660.861C62.3124 655.121 67.3527 646.79 75.4935 642.703C79.8501 640.525 84.8268 639.73 89.088 637.361C96.1158 633.45 99.9477 626.104 101.951 618.106C97.9284 613.4 94.653 608.646 90.201 608.646Z" fill="#CC7B00"/>
<path d="M105.353 586.386C88.5471 578.881 76.2405 592.491 62.2962 601.204C59.9773 602.52 57.5646 603.662 55.0776 604.623C44.3452 617.74 32.8177 629.793 17.7604 637.218C13.8864 638.945 10.1634 640.993 6.63037 643.339C20.3998 638.299 36.8404 639.237 49.3219 630.953C62.3281 619.823 75.3501 608.693 90.2325 608.693C94.6845 608.693 97.9599 613.463 101.935 618.233C102.861 614.444 103.457 610.582 103.716 606.69C104.177 599.932 104.256 592.984 105.353 586.386Z" fill="#FF9900"/>
<path d="M111.332 658.763C110.585 660.448 109.838 662.467 110.776 664.057C111.291 664.693 111.933 665.213 112.662 665.586C113.39 665.958 114.188 666.174 115.005 666.22L133.29 669.845C134.598 670.226 135.989 670.226 137.297 669.845C139.412 669.018 140.222 666.506 140.779 664.312L145.04 647.505C145.199 646.987 145.199 646.434 145.04 645.915C144.716 645.345 144.188 644.919 143.561 644.723C138.791 642.592 127.248 637.282 121.953 639.158C116.547 641.129 113.654 653.531 111.332 658.763Z" fill="#C40041"/>
<path d="M93.778 676.65C88.082 678.86 82.2376 680.666 76.288 682.056C58.8457 686.19 50.4028 689.243 32.5471 690.96C29.8785 690.965 27.2599 691.685 24.9628 693.043C21.1627 695.809 21.0037 701.82 23.6113 705.763C26.2189 709.706 36.3313 717.386 40.9264 718.578C63.7429 724.62 78.2596 711.821 101.776 713.808C108.247 714.349 114.639 716.002 121.126 715.907C127.613 715.812 134.577 713.57 138.107 708.116C142.623 701.152 137.423 689.545 135.404 679.496C121.237 679.48 107.166 679.989 93.778 676.65Z" fill="#FFB000"/>
<path d="M344.299 405.348C344.299 405.348 338.129 419.293 341.532 422.695C344.935 426.098 403.415 449.28 437.298 483.195C438.721 484.642 440.574 485.59 442.58 485.897C444.586 486.204 446.638 485.852 448.428 484.896C453.023 482.416 458.493 478.965 459.017 476.31C459.924 471.667 354.809 402.248 344.299 405.348Z" fill="#C94400"/>
<path d="M457.65 216.329C458.171 217.192 458.863 217.939 459.683 218.524C460.503 219.109 461.435 219.52 462.42 219.732C463.924 219.845 465.434 219.6 466.824 219.016C471.181 217.522 475.649 215.645 478.288 212.259C479.394 210.728 480.182 208.991 480.605 207.15C481.029 205.309 481.079 203.402 480.753 201.542C480.081 197.804 478.91 194.172 477.271 190.746L471.642 177.39C469.888 174.467 467.582 171.913 464.853 169.869C461.673 168.279 459.113 171.459 456.903 174.099C452.292 179.266 448.635 189.681 450.066 196.534C451.29 202.401 454.089 211.193 457.65 216.329Z" fill="#D9957B"/>
<path d="M455.948 46.2627C456.521 44.3229 457.077 42.399 457.538 40.4274C457.986 37.4337 458.108 34.4004 457.904 31.3803C457.344 28.714 456.155 26.2198 454.438 24.1044C452.721 21.9891 450.524 20.3136 448.03 19.2168C445.903 18.357 443.628 17.9264 441.334 17.9498C439.04 17.9731 436.773 18.45 434.664 19.353C432.555 20.2559 430.646 21.5671 429.046 23.2111C427.446 24.855 426.187 26.7992 425.341 28.9317C423.528 33.6222 424.848 39.3621 426.295 43.989C427.742 48.6159 429.857 53.2746 431.065 58.0923C432.273 62.91 433.037 68.0775 434.245 73.0224C435.088 76.3455 437.33 79.6686 440.7 80.3523C446.361 81.4971 448.65 71.2257 449.795 67.4574C451.576 61.2882 453.362 55.1137 455.153 48.9339C455.408 48.0435 455.678 47.1531 455.948 46.2627Z" fill="#FEB600"/>
<path d="M448.682 70.0649H433.625C430.894 70.0649 428.68 72.2789 428.68 75.0098V81.2426C428.68 83.9736 430.894 86.1875 433.625 86.1875H448.682C451.413 86.1875 453.627 83.9736 453.627 81.2426V75.0098C453.627 72.2789 451.413 70.0649 448.682 70.0649Z" fill="#997C6D"/>
<path d="M423.496 573.904V753.034H404.909V568.626L423.496 573.904Z" fill="url(#paint6_linear)"/>
<path d="M297.568 555.746V765.865H279.442V539.767L297.568 555.746Z" fill="url(#paint7_linear)"/>
<path d="M412.065 462.668C412.065 462.668 411.461 463.495 410.379 464.894" stroke="#9E0034" stroke-width="1.17" stroke-miterlimit="10"/>
<path d="M406.897 469.155C398.645 478.886 381.934 496.185 367.258 496.185C346.795 496.185 217.56 470.157 208.258 478.059C199.418 485.58 158.523 601.364 139.57 637.059" stroke="#9E0034" stroke-width="1.17" stroke-miterlimit="10" stroke-dasharray="3.47 3.47"/>
<path d="M138.267 639.444C137.774 640.302 137.297 641.034 136.852 641.845" stroke="#9E0034" stroke-width="1.17" stroke-miterlimit="10"/>
<path d="M304.501 437.387C304.501 437.387 234.08 402.661 227.227 405.237C220.374 407.813 149.587 532.294 118.312 555.492" stroke="#9E0034" stroke-width="1.17" stroke-miterlimit="10" stroke-dasharray="3.51 3.51"/>
<path d="M592.959 230.846L594.119 232.309C590.288 227.634 586.17 222.769 582.481 217.537C586.297 223.325 590.908 229.256 595.296 234.725C599.685 240.195 603.787 245.267 607.189 249.226C607.908 251.66 608.895 254.006 610.131 256.222C610.91 257.733 611.721 259.211 612.15 260.404C612.412 261.09 612.736 261.75 613.12 262.375C613.74 263.584 614.376 264.776 615.012 265.985L615.966 267.813L616.761 269.721C616.057 267.961 615.244 266.246 614.328 264.586C615.244 266.246 616.057 267.961 616.761 269.721L619.273 275.859L619.893 277.449L620.402 279.039C620.736 280.12 621.07 281.201 621.42 282.219L622.421 285.51C622.776 286.612 623.073 287.732 623.312 288.865L624.902 295.734C626.698 305.283 627.661 314.971 627.78 324.688C627.78 326.055 627.78 327.724 627.907 329.601C628.034 331.477 627.907 333.608 627.796 335.865C627.796 340.381 627.303 345.405 627.001 350.573C626.365 355.645 625.951 360.749 625.093 365.217C624.711 367.459 624.361 369.557 624.043 371.449C623.725 373.342 623.28 374.963 622.978 376.347C622.676 377.73 622.278 379.527 621.929 381.117L623.153 375.806C622.58 379.193 622.088 382.42 621.34 385.505C620.593 388.59 620.1 391.611 619.241 394.505C619.798 393.369 620.271 392.195 620.657 390.991C620.402 391.976 620.068 392.946 619.75 393.932C618.878 397.95 617.779 401.916 616.459 405.809C616.459 405.126 615.664 407.399 614.869 409.355L615.266 408.624C614.599 410.5 613.836 412.456 613.041 414.427C612.246 416.399 611.45 418.418 610.719 420.39C609.129 424.317 607.539 428.181 606.06 431.52C605.757 432.198 605.412 432.856 605.027 433.491C604.121 435.59 603.278 437.753 602.292 439.851C602.292 439.263 599.621 444.923 600.909 441.887C599.001 446.657 596.393 451.268 594.422 455.783C586.02 471.924 576.192 487.281 565.054 501.671L565.404 501.384C564.434 502.64 563.496 503.881 562.558 505.121L559.585 508.73C558.583 509.954 557.518 511.211 556.405 512.514C555.292 513.818 553.956 515.042 552.573 516.41L549.584 519.749L546.324 523.024C544.241 525.107 542.524 526.983 541.793 527.794C539.328 529.861 537.627 531.356 535.957 532.835C534.288 534.313 532.475 535.633 529.963 537.605C531.442 536.873 525.193 541.436 527.785 539.815C531.394 537.62 531.41 537.239 534.479 535.363H534.351C536.1 534.218 537.69 532.866 539.344 531.594C540.998 530.322 542.667 529.034 544.257 527.683L549.027 523.517C549.822 522.818 550.617 522.15 551.38 521.418L553.622 519.224L558.106 514.788L562.383 510.145C565.293 507.092 567.884 503.785 570.619 500.51C577.771 491.184 584.37 481.447 590.383 471.349C596.598 460.644 602.184 449.586 607.11 438.23C608.096 435.86 609.05 434.255 610.067 432.299C613.915 423.14 618.796 411.518 622.072 400.706L621.897 401.23C622.739 398.368 623.487 395.888 624.345 393.423C625.204 390.959 625.729 388.431 626.412 385.6C626.45 385.16 626.525 384.724 626.635 384.297C627.177 382.43 627.591 380.528 627.875 378.605C628.177 377.014 628.527 375.107 628.893 373.103C629.259 371.1 629.465 368.937 629.751 366.743C630.403 362.45 630.737 358.062 631.023 354.659C631.31 351.257 631.453 348.792 631.532 348.299V346.423C632.47 334.196 632.884 321.396 631.532 310.855C631.341 309.726 631.151 308.517 630.96 307.357L630.197 304.177C630.053 302.3 629.72 301.998 629.402 299.756C629.373 297.614 629.112 295.482 628.622 293.396C628.352 292.236 628.209 292.172 628.4 293.635C627.859 291.345 627.335 289.056 626.81 286.814C626.285 284.572 625.554 282.457 624.981 280.454C624.409 278.45 623.868 276.733 623.089 274.921C622.632 273.87 622.296 272.771 622.088 271.645C621.309 269.658 621.054 268.942 620.816 268.211C620.475 266.979 620.033 265.777 619.496 264.617C618.708 262.715 617.816 260.857 616.825 259.052C615.616 256.492 613.979 254.123 613.724 253.551L614.106 254.171C612.85 251.897 611.896 249.973 610.926 248.034C609.86 246.021 608.676 244.072 607.38 242.198C599.351 230.575 588.65 219.732 581.94 209.142C581.67 209.142 583.53 211.432 583.339 211.734C579.084 205.722 575.915 199.012 573.974 191.907C573.717 190.773 573.568 189.618 573.529 188.456C573.31 187.475 573.146 186.482 573.036 185.483L573.243 185.245C573.12 184.259 573.077 183.264 573.116 182.271C573.116 181.397 573.306 180.522 573.275 179.362C573.203 178.754 573.203 178.14 573.275 177.533C573.497 177.533 573.481 174.925 573.688 175.069C573.688 174.56 573.688 174.21 573.879 173.574C573.879 172.636 574.467 163.271 574.499 162.205L574.594 161.744C574.753 160.329 574.594 159.709 574.499 160.52L574.722 158.787V158.994L574.912 157.261C574.912 156.943 575.103 156.577 575.167 157.086C575.167 156.1 575.167 154.971 575.326 153.906C575.024 156.688 574.435 160.059 573.831 162.841C573.911 161.681 574.26 159.661 574.388 158.31C574.824 155.955 575.127 153.576 575.294 151.187C575.162 150.474 575.125 149.747 575.183 149.024C575.342 148.42 575.183 147.625 575.183 146.576C575.296 147.759 575.323 148.95 575.262 150.137C575.445 148.842 575.498 147.532 575.421 146.226C575.294 145.781 575.278 143.412 574.928 141.933C575.214 142.553 574.928 140.709 574.801 139.802C574.674 138.896 574.324 138.212 574.356 138.594C574.197 138.467 574.435 139.468 574.594 140.327C574.753 141.186 574.769 141.917 574.594 141.249C574.489 140.104 574.26 138.974 573.911 137.878C573.783 137.878 573.99 138.626 573.704 137.974C573.449 136.813 572.782 135.684 572.686 134.985C572.798 135.191 572.941 135.668 573.068 135.986C573.702 136.961 574.164 138.036 574.435 139.166C575.119 141.138 575.485 143.11 575.326 142.108C575.326 142.378 574.865 140.2 574.101 138.149C573.665 136.958 573.133 135.804 572.511 134.698C572.782 135.605 572.066 134.158 572.368 135.08L572.877 136.05C573.322 137.338 573.259 137.91 573.036 137.497C572.814 137.083 572.941 137.068 573.179 137.497C573.418 137.926 573.672 138.673 573.958 139.437C574.562 141.027 574.88 142.617 574.706 141.663V142.442C574.61 142.044 574.451 141.329 574.324 140.597C574.197 139.866 573.974 139.135 573.942 138.705C573.799 138.705 573.577 137.672 573.179 136.829L573.084 136.511C572.702 135.652 572.273 134.396 572.337 135.032C573.306 137.624 572.686 136.861 572.082 136.129C571.478 135.398 570.858 134.683 571.701 137.068C571.176 134.985 572.336 137.624 572.813 139.834C572.813 140.057 572.814 141.058 573.036 142.664C573.275 144.016 573.227 143.459 573.338 143.714C573.338 144.477 573.338 145.94 573.259 145.765C573.333 146.765 573.333 147.77 573.259 148.77C573.354 149.899 573.338 148.77 573.418 149.485C573.497 150.201 573.338 151.362 573.306 152.347L573.1 154.923C572.941 155.432 572.543 156.99 572.448 155.814C572.67 153.27 572.718 156.831 572.861 154.224C572.48 155.353 572.957 151.855 572.702 151.362C572.518 152.685 572.407 154.017 572.368 155.353V155.066C572.307 156.796 572.116 158.518 571.796 160.218C571.796 159.884 571.573 160.472 571.653 159.534L571.43 161.267C571.43 161.49 571.43 161.728 571.542 161.267C571.505 162.028 571.398 162.784 571.223 163.525C571.08 163.7 570.46 172.827 570.46 172.54C570.281 173.454 570.164 174.378 570.111 175.307L571.033 164.956C570.905 165.481 570.556 169.042 570.269 172.572C569.983 176.102 569.872 179.6 569.792 179.998C569.792 180.936 569.792 182.065 569.888 181.842C569.888 183.432 569.634 181.365 569.57 182.494C569.57 182.494 569.57 182.398 569.649 182.764L569.57 183.845C569.708 186.741 570.178 189.611 570.969 192.4C570.466 191.392 570.097 190.323 569.872 189.22V188.917C569.792 188.695 569.522 187.327 569.411 187.327C569.589 188.869 569.887 190.395 570.301 191.891L570.46 192.797C570.46 193.354 570.46 193.29 570.46 193.115V193.004C570.664 194.289 571.027 195.545 571.542 196.74C572.321 198.33 573.036 200.302 573.656 201.622C574.07 202.369 573.656 201.622 574.26 202.592C575.328 205.082 576.56 207.499 577.949 209.826C578.617 210.573 578.696 210.605 578.172 209.524L579.412 211.495C577.917 209.905 581.543 215.327 579.921 213.61C580.501 214.586 581.155 215.516 581.877 216.393C582.02 216.393 582.258 216.52 583.244 217.84L585.295 220.829C585.47 221.274 585.009 220.749 584.977 220.829C586.901 223.023 586.36 222.991 588.157 225.122C589.205 226.502 590.375 227.785 591.655 228.954C593.356 230.814 593.229 230.909 592.959 230.846Z" fill="#8D509B"/>
<path d="M419.153 182.794C420.929 182.056 421.975 180.511 421.49 179.343C421.005 178.176 419.172 177.827 417.396 178.565C415.62 179.303 414.574 180.847 415.059 182.015C415.544 183.183 417.377 183.531 419.153 182.794Z" fill="#3D2009"/>
<path d="M413.13 171.666C413.13 171.666 426.82 169.488 427.44 168.486C428.06 167.484 415.261 165.306 413.814 166.514C412.367 167.723 410.761 171.141 413.13 171.666Z" fill="#733C11"/>
<path d="M422.432 204.706C424.603 204.189 426.593 203.089 428.188 201.526" stroke="#C77658" stroke-linecap="round" stroke-linejoin="round"/>
<path d="M499.276 259.529C498.815 233.962 492.296 230.242 482.072 232.102C471.848 233.962 400.25 328.329 400.25 328.329C404.591 325.864 446.361 342.957 461.036 361.433C467.651 369.748 469.225 373.612 468.986 375.345C469.012 375.352 469.04 375.352 469.066 375.345C476.491 367.84 499.737 285.097 499.276 259.529Z" fill="url(#paint8_linear)"/>
<path d="M254.13 526.665C252.085 526.613 250.065 527.126 248.293 528.147C246.52 529.168 245.063 530.658 244.082 532.453C237.992 543.583 226.496 566.383 229.326 569.977C248.804 594.542 418.711 598.597 445.312 591.776C471.913 584.955 491.613 529.591 510.2 484.339C528.787 439.088 553.591 359.747 561.08 309.551C568.569 259.354 570.381 227.729 570.381 186.199C570.381 144.668 526.37 197.217 524.51 208.141C522.649 219.064 518.929 295.288 507.147 332.479C495.365 369.669 430.62 522.15 415.261 526.459C401.841 530.275 283.8 527.444 254.13 526.665Z" fill="url(#paint9_linear)"/>
<path d="M527.068 211.029L522.348 210.612C519.05 210.321 516.141 212.758 515.849 216.056L512.056 258.977C511.765 262.275 514.202 265.184 517.5 265.476L522.22 265.893C525.517 266.184 528.427 263.747 528.718 260.45L532.511 217.528C532.802 214.23 530.365 211.321 527.068 211.029Z" fill="#FEE3D5"/>
<path d="M517.606 276.679L512.924 275.95C509.653 275.44 506.589 277.679 506.079 280.951L499.45 323.527C498.941 326.798 501.18 329.862 504.451 330.372L509.133 331.101C512.404 331.61 515.468 329.371 515.978 326.1L522.607 283.524C523.116 280.253 520.877 277.188 517.606 276.679Z" fill="#FEE3D5"/>
<path d="M505.02 343.036L500.559 341.439C497.442 340.324 494.011 341.946 492.895 345.063L478.377 385.633C477.262 388.75 478.884 392.181 482.001 393.296L486.463 394.893C489.58 396.008 493.011 394.386 494.126 391.269L508.644 350.699C509.76 347.582 508.137 344.151 505.02 343.036Z" fill="#FEE3D5"/>
<path d="M459.049 141.885C459.478 141.36 460.022 140.941 460.639 140.661C465.33 138.594 467.937 143.221 468.939 147.021C470.402 152.697 468.939 158.755 466.538 164.002C463.883 169.71 456.41 169.154 453.993 163.207C452.53 159.582 454.216 154.923 455.361 151.441C456.156 148.961 456.982 144.302 459.049 141.885Z" fill="#E0997D"/>
<path d="M455.678 155.225C453.293 155.702 451.48 157.642 449.318 158.596C444.437 160.663 438.824 157.642 435.231 153.747C431.637 149.851 429.061 144.986 424.864 141.758C433.084 150.01 442.004 163.621 446.631 185.69C446.631 185.69 449.032 201.876 448.714 212.72C448.98 212.379 449.29 212.074 449.636 211.813C460.384 203.434 459.176 185.96 460.543 172.413C459.669 168.677 465.743 165.02 464.407 161.442C463.071 157.865 459.446 154.478 455.678 155.225Z" fill="#FFB396"/>
<path d="M485.411 156.545C484.505 154.112 483.106 151.584 483.821 149.088C484.298 147.498 485.554 146.274 485.952 144.684C486.225 142.984 485.869 141.243 484.95 139.787C482.739 136.049 479.758 132.824 476.205 130.326C465.902 115.682 446.25 112.836 429.189 118.624C426.434 118.291 423.64 118.72 421.112 119.864C418.297 121.295 416.342 123.871 414.275 126.224C411.747 127.305 409.266 128.482 406.865 129.801C410.759 131.157 414.414 133.121 417.693 135.621C420.2 137.442 422.556 139.462 424.737 141.663V141.663C428.934 144.843 431.526 149.756 435.104 153.651C438.681 157.547 440.764 161.363 445.995 162.19C449.366 162.714 451.433 160.806 453.818 160.329C457.586 159.582 459.017 168.613 460.369 172.207C460.703 173.097 461.227 173.94 461.514 174.862C461.633 175.783 461.913 176.677 462.34 177.501C462.918 178.163 463.674 178.644 464.519 178.885L469.543 180.872C471.289 181.674 473.187 182.086 475.108 182.081C475.932 182.019 476.73 181.762 477.435 181.331C478.14 180.899 478.733 180.306 479.163 179.6C480.894 177.557 482.488 175.4 483.933 173.145C484.746 171.678 485.381 170.119 485.825 168.502C486.964 164.542 486.819 160.322 485.411 156.45V156.545Z" fill="#3D2009"/>
<path d="M406.436 130.119C404.846 131.026 403.256 131.996 401.666 133.061L406.436 130.119Z" fill="#3D2009"/>
<path d="M406.436 130.119L406.881 129.865L406.436 130.119Z" fill="#3D2009"/>
<path d="M417.709 135.684C414.426 133.182 410.766 131.218 406.866 129.865L401.65 133.045C400.617 133.76 399.599 134.524 398.614 135.319C397.278 136.416 395.879 137.831 396.038 139.548C396.165 140.979 397.357 142.06 397.993 143.348C398.963 145.336 398.598 147.832 399.44 149.803C399.265 150.71 399.122 151.632 399.011 152.554C399.019 152.618 399.019 152.682 399.011 152.745C398.407 158.898 404.926 161.522 409.171 159.216C410.003 158.761 410.726 158.13 411.289 157.366C411.852 156.603 412.242 155.726 412.431 154.796C413.607 149.708 414.832 144.652 418.791 141.535C419.507 140.905 420.391 140.497 421.335 140.359C422.61 140.379 423.835 140.859 424.785 141.71C422.593 139.514 420.227 137.499 417.709 135.684V135.684Z" fill="#4F290B"/>
<path d="M479.91 178.98C480.037 178.71 480.148 178.439 480.26 178.153C482.216 176.289 483.785 174.057 484.876 171.585C485.967 169.113 486.56 166.449 486.62 163.748C486.695 161.307 486.306 158.873 485.475 156.577C484.642 154.81 484.053 152.938 483.726 151.012C483.679 150.406 483.744 149.797 483.917 149.215C484.378 147.625 485.634 146.401 486.031 144.811C486.137 144.396 486.18 143.967 486.159 143.539C486.077 142.228 485.69 140.954 485.03 139.818C482.823 136.077 479.842 132.851 476.285 130.358C465.982 115.714 446.329 112.868 429.268 118.655C426.513 118.323 423.72 118.752 421.191 119.896C418.377 121.327 416.421 123.902 414.354 126.256C411.826 127.337 409.346 128.513 406.945 129.833L406.516 130.088C404.926 130.994 403.336 131.964 401.746 133.029L400.966 133.617L316.013 186.803L327.842 238.844C327.842 238.844 423.624 225.376 459.812 218.619C460.57 219.231 461.474 219.637 462.436 219.795C463.94 219.908 465.449 219.663 466.84 219.08C471.197 217.585 475.665 215.709 478.304 212.322C479.41 210.791 480.198 209.054 480.621 207.214C481.044 205.373 481.095 203.466 480.769 201.606C480.097 197.867 478.926 194.236 477.286 190.81L473.963 182.86C475.218 182.832 476.439 182.454 477.49 181.768C478.541 181.083 479.379 180.117 479.91 178.98V178.98Z" fill="url(#paint10_linear)"/>
<path d="M410.125 179.393L458.969 159.105" stroke="#557CAD" stroke-miterlimit="10"/>
<path d="M456.998 158.31C457.674 154.951 459.475 151.923 462.102 149.724C462.67 149.224 463.294 148.792 463.962 148.436C465.011 147.99 466.153 147.81 467.288 147.912C468.423 148.015 469.514 148.397 470.466 149.024C471.51 149.54 472.403 150.318 473.057 151.282C473.835 152.886 474.075 154.699 473.741 156.45C473.359 159.484 472.304 162.395 470.654 164.97C469.003 167.544 466.799 169.718 464.201 171.332C459.431 174.019 459.431 170.823 458.382 167.548C457.491 164.67 456.394 161.729 456.998 158.31Z" fill="#E6A187"/>
<path d="M407.453 176.531L409.329 174.13L415.864 194.88H413.352L408.312 179.203L407.453 176.531Z" fill="#9EC7FF"/>
<path d="M404.051 78.7623L393.97 84.6294" stroke="#FEB600" stroke-miterlimit="10"/>
<path d="M403.987 9.3747L394.034 0.502502" stroke="#FEB600" stroke-miterlimit="10"/>
<path d="M391.076 43.1145L379.151 42.4149" stroke="#FEB600" stroke-miterlimit="10"/>
<path d="M404.051 78.7623L393.97 84.6294" stroke="#FEB600" stroke-miterlimit="10"/>
<path d="M403.987 9.3747L394.034 0.502502" stroke="#FEB600" stroke-miterlimit="10"/>
<path d="M391.076 43.1145L379.151 42.4149" stroke="#FEB600" stroke-miterlimit="10"/>
<path d="M481.214 78.9531L491.279 84.8202" stroke="#FEB600" stroke-miterlimit="10"/>
<path d="M481.262 9.58143L491.215 0.709229" stroke="#FEB600" stroke-miterlimit="10"/>
<path d="M494.188 43.3213L506.097 42.6058" stroke="#FEB600" stroke-miterlimit="10"/>
<path d="M580.7 543.09C581.527 541.834 562.542 542.931 560.3 544.076C554.29 547.16 549.17 552.026 551.825 558.926C559.139 577.927 576.471 549.561 580.7 543.09Z" fill="#FFB000"/>
<path d="M630.006 483.529C640.134 486.375 641.232 509.954 629.64 511.767C614.519 514.136 630.483 483.656 630.006 483.529Z" fill="#FE8040"/>
<defs>
<linearGradient id="paint0_linear" x1="493.647" y1="506.79" x2="493.647" y2="75.9798" gradientUnits="userSpaceOnUse">
<stop offset="0.08" stop-color="#E5E4E3" stop-opacity="0.6"/>
<stop offset="0.75" stop-color="#71008A" stop-opacity="0.5"/>
</linearGradient>
<linearGradient id="paint1_linear" x1="144.54" y1="516.787" x2="198.607" y2="386.77" gradientUnits="userSpaceOnUse">
<stop offset="0.08" stop-color="#E5E4E3" stop-opacity="0.6"/>
<stop offset="0.86" stop-color="#FFFEFE" stop-opacity="0.2"/>
</linearGradient>
<linearGradient id="paint2_linear" x1="532.92" y1="360.622" x2="389.82" y2="320.077" gradientUnits="userSpaceOnUse">
<stop stop-color="#A83800"/>
<stop offset="0.04" stop-color="#AC3900"/>
<stop offset="0.99" stop-color="#FE5400"/>
</linearGradient>
<linearGradient id="paint3_linear" x1="440.605" y1="358.825" x2="418.87" y2="338.68" gradientUnits="userSpaceOnUse">
<stop stop-color="#A32700"/>
<stop offset="1" stop-color="#D13100"/>
</linearGradient>
<linearGradient id="paint4_linear" x1="93.2056" y1="469.044" x2="347.176" y2="469.044" gradientUnits="userSpaceOnUse">
<stop offset="0.09" stop-color="#FF2E67"/>
<stop offset="0.99" stop-color="#7B0F2C"/>
</linearGradient>
<linearGradient id="paint5_linear" x1="112.938" y1="536.412" x2="445.343" y2="536.412" gradientUnits="userSpaceOnUse">
<stop stop-color="#9E183C"/>
<stop offset="0.53" stop-color="#FF2B64"/>
<stop offset="1" stop-color="#911536"/>
</linearGradient>
<linearGradient id="paint6_linear" x1="414.529" y1="687.621" x2="413.463" y2="608.121" gradientUnits="userSpaceOnUse">
<stop stop-color="white" stop-opacity="0"/>
<stop offset="0.25" stop-color="#FFFCFB" stop-opacity="0.04"/>
<stop offset="1" stop-color="#FE8E59"/>
</linearGradient>
<linearGradient id="paint7_linear" x1="4431.91" y1="115626" x2="2579.48" y2="89074.8" gradientUnits="userSpaceOnUse">
<stop stop-color="white" stop-opacity="0"/>
<stop offset="0.25" stop-color="#FFFCFB" stop-opacity="0.04"/>
<stop offset="1" stop-color="#FE8E59"/>
</linearGradient>
<linearGradient id="paint8_linear" x1="509.499" y1="330.698" x2="449.604" y2="283.538" gradientUnits="userSpaceOnUse">
<stop stop-color="#D14603"/>
<stop offset="0.99" stop-color="#FE8930"/>
</linearGradient>
<linearGradient id="paint9_linear" x1="456.601" y1="388.16" x2="599.701" y2="424.206" gradientUnits="userSpaceOnUse">
<stop stop-color="#FEA275"/>
<stop offset="1" stop-color="#BF40FE"/>
</linearGradient>
<linearGradient id="paint10_linear" x1="540.807" y1="145.526" x2="390.52" y2="182.558" gradientUnits="userSpaceOnUse">
<stop stop-color="white" stop-opacity="0"/>
<stop offset="0.42" stop-color="#FFFCFB" stop-opacity="0.04"/>
<stop offset="1" stop-color="white" stop-opacity="0.5"/>
</linearGradient>
</defs>
</svg>
