<svg width="42" height="42" viewBox="0 0 42 42" fill="none" xmlns="http://www.w3.org/2000/svg">
<g id="icon/av/slow_motion_video_24px">
<path id="icon/av/slow_motion_video_24px_2" fill-rule="evenodd" clip-rule="evenodd" d="M19.4496 7V10.487C16.9293 10.7977 14.6334 11.7989 12.7173 13.2834L10.2661 10.8149C12.8209 8.72622 15.9799 7.34524 19.4496 7ZM22.9888 20.3611L17.7238 16.408V31.944L22.9888 27.991L28.0811 24.176L22.9888 20.3611ZM10.2834 15.7173L7.81495 13.2661C5.72622 15.8209 4.34524 18.9799 4 22.4496H7.48696C7.79768 19.9293 8.79889 17.6334 10.2834 15.7173ZM4 25.9024H7.48696C7.79768 28.4227 8.79889 30.7186 10.2834 32.6174L7.81495 35.0859C5.72622 32.5311 4.34524 29.3721 4 25.9024ZM10.2661 37.5364C12.8209 39.6251 15.9971 41.0061 19.4496 41.3514V37.8644C16.9293 37.5537 14.6334 36.5525 12.7173 35.0679L10.2661 37.5364ZM22.9888 41.3518C31.6717 40.4369 38.4385 33.0832 38.4385 24.1759C38.4385 15.2686 31.6717 7.9149 22.9888 7V10.487C29.7556 11.3846 34.986 17.1847 34.986 24.1759C34.986 31.1671 29.7556 36.9672 22.9888 37.8648V41.3518Z" fill="white"/>
</g>
</svg>
