<svg width="60" height="60" viewBox="0 0 60 60" fill="none" xmlns="http://www.w3.org/2000/svg">
<g id="icon/navigation/more_horiz_24px">
<path id="icon/navigation/more_horiz_24px_2" fill-rule="evenodd" clip-rule="evenodd" d="M15 25C12.25 25 10 27.25 10 30C10 32.75 12.25 35 15 35C17.75 35 20 32.75 20 30C20 27.25 17.75 25 15 25ZM45 25C42.25 25 40 27.25 40 30C40 32.75 42.25 35 45 35C47.75 35 50 32.75 50 30C50 27.25 47.75 25 45 25ZM25 30C25 27.25 27.25 25 30 25C32.75 25 35 27.25 35 30C35 32.75 32.75 35 30 35C27.25 35 25 32.75 25 30Z" fill="black"/>
</g>
</svg>
