<svg width="403" height="403" viewBox="0 0 403 403" fill="none" xmlns="http://www.w3.org/2000/svg">
<rect width="403" height="403" rx="5" fill="white"/>
<path d="M201 52C180.688 52 161.246 55.9663 142.677 63.899C124.107 71.8317 108.151 82.4688 94.8101 95.8101C81.4688 109.151 70.8317 125.107 62.899 143.677C54.9663 162.246 51 181.688 51 202C51 222.313 54.9663 241.754 62.899 260.323C70.8317 278.893 81.4688 294.849 94.8101 308.19C108.151 321.531 124.107 332.168 142.677 340.101C161.246 348.034 180.688 352 201 352C221.313 352 240.754 348.034 259.323 340.101C277.893 332.168 293.849 321.531 307.19 308.19C320.531 294.849 331.168 278.893 339.101 260.323C347.034 241.754 351 222.313 351 202C351 181.688 347.034 162.246 339.101 143.677C331.168 125.107 320.531 109.151 307.19 95.8101C293.849 82.4688 277.893 71.8317 259.323 63.899C240.754 55.9663 221.313 52 201 52ZM201 328.923C187.418 328.923 174.137 326.76 161.156 322.433C163.079 321.471 165.453 319.668 168.278 317.024C171.102 314.38 173.776 312.998 176.3 312.877C178.704 312.757 181.108 312.457 183.512 311.976C185.916 311.495 188.71 310.804 191.895 309.903C195.081 309.001 197.635 308.31 199.558 307.829C201.12 307.469 206.078 305.696 214.431 302.511C222.785 299.326 229.365 297.553 234.173 297.192C241.024 296.591 248.236 297.102 255.808 298.725C263.38 300.347 268.428 303.382 270.952 307.829C249.798 321.892 226.481 328.923 201 328.923ZM82.5505 156.567C90.7236 135.173 103.855 117.234 121.944 102.751C140.032 88.268 160.555 79.4639 183.512 76.3389C182.31 78.6226 179.576 81.1166 175.309 83.8209C171.042 86.5252 168.488 88.2981 167.647 89.1394C164.882 91.6635 162.028 93.8269 159.083 95.6298C156.138 97.4327 153.764 99.0553 151.962 100.498C150.159 101.94 148.416 103.983 146.733 106.627C145.171 109.031 142.316 112.276 138.169 116.363C134.023 120.45 130.387 124.206 127.262 127.631C124.137 131.056 122.575 133.731 122.575 135.654C122.575 138.899 124.317 142.084 127.803 145.209C131.288 148.334 134.173 149.476 136.457 148.635C138.62 147.793 142.376 147.463 147.725 147.643C153.073 147.823 157.43 148.514 160.796 149.716C161.517 149.957 163.079 150.317 165.483 150.798L173.145 152.331L182.25 154.945L191.715 159.001L200.008 165.041L205.958 173.514L207.761 185.053L204.425 200.017C203.224 203.142 200.91 205.936 197.484 208.4C194.059 210.864 190.603 212.847 187.118 214.35C183.632 215.852 180.117 218.436 176.571 222.102C173.025 225.768 170.531 230.305 169.089 235.714C166.325 246.531 164.882 254.284 164.762 258.971C164.642 260.293 164.942 264.32 165.663 271.05C166.385 277.781 166.625 283.46 166.385 288.088C166.144 292.715 164.942 295.029 162.779 295.029C159.413 295.029 154.095 290.672 146.823 281.958C139.552 273.244 135.916 267.565 135.916 264.921C135.916 264.2 135.044 259.602 133.302 251.129C131.559 242.655 130.688 235.714 130.688 230.305C130.688 227.3 129.456 224.566 126.992 222.102C124.528 219.638 121.853 217.655 118.969 216.153C116.084 214.65 113.41 212.337 110.946 209.212C108.482 206.087 107.25 202.481 107.25 198.394C107.25 193.707 108.302 189.139 110.405 184.692C112.508 180.245 114.371 176.489 115.994 173.424C117.617 170.359 118.007 167.745 117.166 165.582C116.565 164.139 115.363 162.877 113.56 161.796C111.757 160.714 109.293 159.873 106.168 159.272C103.043 158.671 100.399 158.22 98.2356 157.919C96.0721 157.619 93.0373 157.319 89.131 157.018C85.2248 156.718 83.0313 156.567 82.5505 156.567ZM241.385 81.5673C266.865 90.101 287.659 105.395 303.764 127.451C319.87 149.506 327.923 174.356 327.923 202C327.923 230.846 319.149 256.627 301.601 279.344V279.163C298.837 277 296.853 273.905 295.651 269.879C294.45 265.852 294.81 261.075 296.733 255.546C298.897 250.858 300.399 243.827 301.24 234.452C302.082 225.077 302.202 217.745 301.601 212.457C301.24 209.572 300.669 206.597 299.888 203.532C299.107 200.468 298.025 197.102 296.643 193.436C295.261 189.77 293.338 186.766 290.874 184.422C288.41 182.078 285.675 180.906 282.671 180.906C275.82 180.786 270.111 179.284 265.543 176.399C260.976 173.514 256.829 168.346 253.103 160.894C250.94 156.567 249.798 152.511 249.678 148.725C249.558 144.939 250.219 141.663 251.661 138.899C253.103 136.135 254.876 133.52 256.98 131.056C259.083 128.593 261.186 126.339 263.29 124.296C265.393 122.252 267.166 120.239 268.608 118.256C270.05 116.273 270.712 114.169 270.591 111.946C270.471 109.722 269.329 107.409 267.166 105.005C266.084 103.803 264.522 103.773 262.478 104.915C260.435 106.056 258.031 107.048 255.267 107.889C252.502 108.731 249.828 109.272 247.244 109.512C244.66 109.752 242.316 108.4 240.213 105.456C238.109 102.511 236.757 97.8534 236.156 91.4832C236.036 89.1995 237.779 85.9543 241.385 81.7476V81.5673Z" fill="#B6CBFE"/>
</svg>
